<svg viewBox="0 0 634 170" xmlns="http://www.w3.org/2000/svg"><g transform="translate(24,30) scale(0.8462)"><rect width="130" height="130" rx="20" fill="#16304C"/><rect x="26" y="36" width="11" height="58" fill="#F1EFE9"/><rect x="26" y="83" width="34" height="11" fill="#F1EFE9"/><path d="M64 45 L84 42 L104 45" fill="none" stroke="#2F6DB0" stroke-width="11"/><rect x="78.5" y="45" width="11" height="49" fill="#2F6DB0"/></g><path transform="translate(150.00,80.00) scale(0.03200,-0.03200)" d="M76 0V686H206V113H550V0Z" fill="#16304C"/><path transform="translate(169.24,80.00) scale(0.03200,-0.03200)" d="M244 0V574H25V686H594V574H374V0Z" fill="#16304C"/><path transform="translate(202.05,80.00) scale(0.03200,-0.03200)" d="M338 -12Q263 -12 198.0 8.0Q133 28 92.5 73.5Q52 119 52 194Q52 199 52.5 204.0Q53 209 53 214H149Q149 210 148.5 204.0Q148 198 148 193Q148 132 201.0 101.0Q254 70 335 70Q366 70 398.5 74.5Q431 79 459.0 91.5Q487 104 505.0 125.5Q523 147 523 180Q523 218 498.5 242.5Q474 267 433.5 282.5Q393 298 344.5 310.0Q296 322 247.5 336.0Q199 350 158.5 371.5Q118 393 93.5 427.5Q69 462 69 515Q69 601 139.0 649.5Q209 698 341 698Q413 698 471.5 678.0Q530 658 564.5 615.0Q599 572 599 505V493H505V508Q505 558 459.5 587.0Q414 616 344 616Q253 616 209.0 590.0Q165 564 165 523Q165 487 190.0 465.0Q215 443 255.5 428.5Q296 414 344.0 402.0Q392 390 440.5 375.5Q489 361 529.5 339.0Q570 317 594.5 282.0Q619 247 619 194Q619 121 583.0 75.5Q547 30 483.5 9.0Q420 -12 338 -12Z" fill="#16304C"/><path transform="translate(226.58,80.00) scale(0.03200,-0.03200)" d="M254 0V603H19V686H586V603H349V0Z" fill="#16304C"/><path transform="translate(248.98,80.00) scale(0.03200,-0.03200)" d="M86 0V686H447Q552 686 604.0 630.0Q656 574 656 485Q656 414 623.5 363.0Q591 312 536 290L680 0H576L442 273H181V0ZM181 354H438Q495 354 527.5 389.0Q560 424 560 485Q560 541 529.0 572.5Q498 604 438 604H181Z" fill="#16304C"/><path transform="translate(275.24,80.00) scale(0.03200,-0.03200)" d="M7 0 278 686H403L675 0H572L505 170H171L105 0ZM202 251H473L390 466Q386 478 377.0 502.0Q368 526 358.5 553.5Q349 581 341 604H335Q328 584 319.0 558.0Q310 532 301.0 507.5Q292 483 286 466Z" fill="#16304C"/><path transform="translate(300.06,80.00) scale(0.03200,-0.03200)" d="M254 0V603H19V686H586V603H349V0Z" fill="#16304C"/><path transform="translate(322.46,80.00) scale(0.03200,-0.03200)" d="M86 0V686H614V604H181V392H570V310H181V82H620V0Z" fill="#16304C"/><path transform="translate(347.12,80.00) scale(0.03200,-0.03200)" d="M395 -12Q229 -12 142.5 75.0Q56 162 56 343Q56 520 145.5 609.0Q235 698 404 698Q496 698 566.5 671.0Q637 644 676.5 589.5Q716 535 716 452H619Q619 511 591.0 547.0Q563 583 514.5 599.5Q466 616 406 616Q286 616 220.0 553.5Q154 491 154 353V332Q154 192 217.0 131.0Q280 70 395 70Q510 70 565.5 119.0Q621 168 621 268V280H379V361H717V0H645L635 87Q595 34 532.5 11.0Q470 -12 395 -12Z" fill="#16304C"/><path transform="translate(375.59,80.00) scale(0.03200,-0.03200)" d="M280 0V285L10 686H119L328 369H333L541 686H645L376 285V0Z" fill="#16304C"/><path transform="translate(409.24,80.00) scale(0.03200,-0.03200)" d="M86 0V686H425Q531 686 584.0 628.0Q637 570 637 477Q637 413 611.0 365.0Q585 317 537.0 290.0Q489 263 424 263H181V0ZM181 345H418Q474 345 507.5 380.0Q541 415 541 476Q541 536 510.0 570.0Q479 604 418 604H181Z" fill="#16304C"/><path transform="translate(433.52,80.00) scale(0.03200,-0.03200)" d="M7 0 278 686H403L675 0H572L505 170H171L105 0ZM202 251H473L390 466Q386 478 377.0 502.0Q368 526 358.5 553.5Q349 581 341 604H335Q328 584 319.0 558.0Q310 532 301.0 507.5Q292 483 286 466Z" fill="#16304C"/><path transform="translate(458.34,80.00) scale(0.03200,-0.03200)" d="M86 0V686H447Q552 686 604.0 630.0Q656 574 656 485Q656 414 623.5 363.0Q591 312 536 290L680 0H576L442 273H181V0ZM181 354H438Q495 354 527.5 389.0Q560 424 560 485Q560 541 529.0 572.5Q498 604 438 604H181Z" fill="#16304C"/><path transform="translate(484.61,80.00) scale(0.03200,-0.03200)" d="M254 0V603H19V686H586V603H349V0Z" fill="#16304C"/><path transform="translate(507.00,80.00) scale(0.03200,-0.03200)" d="M86 0V686H178L511 234Q519 224 532.0 204.5Q545 185 553 172H557V686H650V0H563L226 460Q219 471 205.0 490.5Q191 510 183 523H178V0Z" fill="#16304C"/><path transform="translate(533.55,80.00) scale(0.03200,-0.03200)" d="M86 0V686H614V604H181V392H570V310H181V82H620V0Z" fill="#16304C"/><path transform="translate(558.22,80.00) scale(0.03200,-0.03200)" d="M86 0V686H447Q552 686 604.0 630.0Q656 574 656 485Q656 414 623.5 363.0Q591 312 536 290L680 0H576L442 273H181V0ZM181 354H438Q495 354 527.5 389.0Q560 424 560 485Q560 541 529.0 572.5Q498 604 438 604H181Z" fill="#16304C"/><path transform="translate(584.48,80.00) scale(0.03200,-0.03200)" d="M338 -12Q263 -12 198.0 8.0Q133 28 92.5 73.5Q52 119 52 194Q52 199 52.5 204.0Q53 209 53 214H149Q149 210 148.5 204.0Q148 198 148 193Q148 132 201.0 101.0Q254 70 335 70Q366 70 398.5 74.5Q431 79 459.0 91.5Q487 104 505.0 125.5Q523 147 523 180Q523 218 498.5 242.5Q474 267 433.5 282.5Q393 298 344.5 310.0Q296 322 247.5 336.0Q199 350 158.5 371.5Q118 393 93.5 427.5Q69 462 69 515Q69 601 139.0 649.5Q209 698 341 698Q413 698 471.5 678.0Q530 658 564.5 615.0Q599 572 599 505V493H505V508Q505 558 459.5 587.0Q414 616 344 616Q253 616 209.0 590.0Q165 564 165 523Q165 487 190.0 465.0Q215 443 255.5 428.5Q296 414 344.0 402.0Q392 390 440.5 375.5Q489 361 529.5 339.0Q570 317 594.5 282.0Q619 247 619 194Q619 121 583.0 75.5Q547 30 483.5 9.0Q420 -12 338 -12Z" fill="#16304C"/><rect x="152.0" y="90" width="456.0" height="2" fill="#2F6DB0"/><path transform="translate(152.00,110.00) scale(0.01150,-0.01150)" d="M338 -12Q263 -12 198.0 8.0Q133 28 92.5 73.5Q52 119 52 194Q52 199 52.5 204.0Q53 209 53 214H149Q149 210 148.5 204.0Q148 198 148 193Q148 132 201.0 101.0Q254 70 335 70Q366 70 398.5 74.5Q431 79 459.0 91.5Q487 104 505.0 125.5Q523 147 523 180Q523 218 498.5 242.5Q474 267 433.5 282.5Q393 298 344.5 310.0Q296 322 247.5 336.0Q199 350 158.5 371.5Q118 393 93.5 427.5Q69 462 69 515Q69 601 139.0 649.5Q209 698 341 698Q413 698 471.5 678.0Q530 658 564.5 615.0Q599 572 599 505V493H505V508Q505 558 459.5 587.0Q414 616 344 616Q253 616 209.0 590.0Q165 564 165 523Q165 487 190.0 465.0Q215 443 255.5 428.5Q296 414 344.0 402.0Q392 390 440.5 375.5Q489 361 529.5 339.0Q570 317 594.5 282.0Q619 247 619 194Q619 121 583.0 75.5Q547 30 483.5 9.0Q420 -12 338 -12Z" fill="#55677D"/><path transform="translate(164.24,110.00) scale(0.01150,-0.01150)" d="M254 0V603H19V686H586V603H349V0Z" fill="#55677D"/><path transform="translate(175.71,110.00) scale(0.01150,-0.01150)" d="M86 0V686H447Q552 686 604.0 630.0Q656 574 656 485Q656 414 623.5 363.0Q591 312 536 290L680 0H576L442 273H181V0ZM181 354H438Q495 354 527.5 389.0Q560 424 560 485Q560 541 529.0 572.5Q498 604 438 604H181Z" fill="#55677D"/><path transform="translate(188.57,110.00) scale(0.01150,-0.01150)" d="M7 0 278 686H403L675 0H572L505 170H171L105 0ZM202 251H473L390 466Q386 478 377.0 502.0Q368 526 358.5 553.5Q349 581 341 604H335Q328 584 319.0 558.0Q310 532 301.0 507.5Q292 483 286 466Z" fill="#55677D"/><path transform="translate(200.91,110.00) scale(0.01150,-0.01150)" d="M254 0V603H19V686H586V603H349V0Z" fill="#55677D"/><path transform="translate(212.38,110.00) scale(0.01150,-0.01150)" d="M86 0V686H614V604H181V392H570V310H181V82H620V0Z" fill="#55677D"/><path transform="translate(224.67,110.00) scale(0.01150,-0.01150)" d="M395 -12Q229 -12 142.5 75.0Q56 162 56 343Q56 520 145.5 609.0Q235 698 404 698Q496 698 566.5 671.0Q637 644 676.5 589.5Q716 535 716 452H619Q619 511 591.0 547.0Q563 583 514.5 599.5Q466 616 406 616Q286 616 220.0 553.5Q154 491 154 353V332Q154 192 217.0 131.0Q280 70 395 70Q510 70 565.5 119.0Q621 168 621 268V280H379V361H717V0H645L635 87Q595 34 532.5 11.0Q470 -12 395 -12Z" fill="#55677D"/><path transform="translate(238.32,110.00) scale(0.01150,-0.01150)" d="M280 0V285L10 686H119L328 369H333L541 686H645L376 285V0Z" fill="#55677D"/><path transform="translate(257.26,110.00) scale(0.01150,-0.01150)" d="M254 0V603H19V686H586V603H349V0Z" fill="#55677D"/><path transform="translate(268.73,110.00) scale(0.01150,-0.01150)" d="M86 0V686H181V392H554V686H650V0H554V309H181V0Z" fill="#55677D"/><path transform="translate(281.69,110.00) scale(0.01150,-0.01150)" d="M7 0 278 686H403L675 0H572L505 170H171L105 0ZM202 251H473L390 466Q386 478 377.0 502.0Q368 526 358.5 553.5Q349 581 341 604H335Q328 584 319.0 558.0Q310 532 301.0 507.5Q292 483 286 466Z" fill="#55677D"/><path transform="translate(294.03,110.00) scale(0.01150,-0.01150)" d="M254 0V603H19V686H586V603H349V0Z" fill="#55677D"/><path transform="translate(312.40,110.00) scale(0.01150,-0.01150)" d="M86 0V686H342Q503 686 593.0 604.0Q683 522 683 343Q683 165 593.0 82.5Q503 0 342 0ZM181 82H340Q454 82 519.0 140.5Q584 199 584 332V352Q584 487 519.0 545.5Q454 604 340 604H181Z" fill="#55677D"/><path transform="translate(325.35,110.00) scale(0.01150,-0.01150)" d="M86 0V686H614V604H181V392H570V310H181V82H620V0Z" fill="#55677D"/><path transform="translate(337.63,110.00) scale(0.01150,-0.01150)" d="M86 0V686H181V83H522V0Z" fill="#55677D"/><path transform="translate(348.30,110.00) scale(0.01150,-0.01150)" d="M86 0V686H181V0Z" fill="#55677D"/><path transform="translate(355.87,110.00) scale(0.01150,-0.01150)" d="M266 0 10 686H113L289 200Q297 179 307.0 150.5Q317 122 324 103H330Q336 121 345.5 149.0Q355 177 364 200L538 686H638L381 0Z" fill="#55677D"/><path transform="translate(367.82,110.00) scale(0.01150,-0.01150)" d="M86 0V686H614V604H181V392H570V310H181V82H620V0Z" fill="#55677D"/><path transform="translate(380.10,110.00) scale(0.01150,-0.01150)" d="M86 0V686H447Q552 686 604.0 630.0Q656 574 656 485Q656 414 623.5 363.0Q591 312 536 290L680 0H576L442 273H181V0ZM181 354H438Q495 354 527.5 389.0Q560 424 560 485Q560 541 529.0 572.5Q498 604 438 604H181Z" fill="#55677D"/><path transform="translate(392.96,110.00) scale(0.01150,-0.01150)" d="M338 -12Q263 -12 198.0 8.0Q133 28 92.5 73.5Q52 119 52 194Q52 199 52.5 204.0Q53 209 53 214H149Q149 210 148.5 204.0Q148 198 148 193Q148 132 201.0 101.0Q254 70 335 70Q366 70 398.5 74.5Q431 79 459.0 91.5Q487 104 505.0 125.5Q523 147 523 180Q523 218 498.5 242.5Q474 267 433.5 282.5Q393 298 344.5 310.0Q296 322 247.5 336.0Q199 350 158.5 371.5Q118 393 93.5 427.5Q69 462 69 515Q69 601 139.0 649.5Q209 698 341 698Q413 698 471.5 678.0Q530 658 564.5 615.0Q599 572 599 505V493H505V508Q505 558 459.5 587.0Q414 616 344 616Q253 616 209.0 590.0Q165 564 165 523Q165 487 190.0 465.0Q215 443 255.5 428.5Q296 414 344.0 402.0Q392 390 440.5 375.5Q489 361 529.5 339.0Q570 317 594.5 282.0Q619 247 619 194Q619 121 583.0 75.5Q547 30 483.5 9.0Q420 -12 338 -12Z" fill="#55677D"/></svg>